<?xml version="1.0" standalone="no"?>
<!DOCTYPE svg PUBLIC "-//W3C//DTD SVG 20010904//EN"
 "http://www.w3.org/TR/2001/REC-SVG-20010904/DTD/svg10.dtd">
<svg version="1.0" xmlns="http://www.w3.org/2000/svg"
 width="1584.000000pt" height="1200.000000pt" viewBox="0 0 1584.000000 1200.000000"
 preserveAspectRatio="xMidYMid meet">

<g transform="translate(0.000000,1200.000000) scale(0.100000,-0.100000)"
fill="#000000" stroke="none">
<path d="M20 6000 l0 -6000 7910 0 7910 0 0 6000 0 6000 -7910 0 -7910 0 0
-6000z m6902 3479 c195 -76 329 -213 392 -399 13 -41 28 -103 32 -137 l6 -61
-418 -4 c-366 -4 -426 -7 -474 -22 -194 -63 -344 -212 -403 -401 -27 -90 -29
-233 -3 -319 9 -32 433 -889 940 -1905 l923 -1846 918 1835 c505 1009 926
1860 937 1890 29 81 35 222 13 312 -50 209 -220 384 -425 439 -30 8 -183 13
-459 16 l-414 5 5 66 c19 253 224 487 480 547 54 12 217 15 1101 15 684 0
1037 -3 1037 -10 0 -15 -3184 -6380 -3192 -6380 -5 0 -3182 6342 -3196 6381
-2 6 420 8 1065 7 l1068 -3 67 -26z m73 -1274 c225 -65 428 -209 557 -392 18
-26 108 -196 199 -377 l167 -331 165 330 c90 182 186 358 211 393 101 136 231
242 387 317 125 58 223 85 342 92 l99 6 -602 -1204 -602 -1204 -599 1195
c-329 657 -598 1199 -598 1204 -2 17 183 -2 274 -29z"/>
</g>
</svg>
